<mxfile host="65bd71144e">
    <diagram id="WAPi4k_sqjxxMD7cqRkw" name="Page-1">
        <mxGraphModel dx="1721" dy="2025" grid="1" gridSize="10" guides="1" tooltips="1" connect="1" arrows="1" fold="1" page="1" pageScale="1" pageWidth="850" pageHeight="1100" math="0" shadow="0">
            <root>
                <mxCell id="0"/>
                <mxCell id="1" parent="0"/>
                <mxCell id="299" style="edgeStyle=orthogonalEdgeStyle;rounded=1;sketch=0;hachureGap=4;jiggle=2;curveFitting=1;html=1;exitX=1;exitY=0.5;exitDx=0;exitDy=0;entryX=0;entryY=0.5;entryDx=0;entryDy=0;fontFamily=Architects Daughter;fontSource=https%3A%2F%2Ffonts.googleapis.com%2Fcss%3Ffamily%3DArchitects%2BDaughter;fontSize=16;startArrow=none;startFill=0;endArrow=none;endFill=0;" parent="1" source="197" target="270" edge="1">
                    <mxGeometry relative="1" as="geometry"/>
                </mxCell>
                <mxCell id="300" style="edgeStyle=orthogonalEdgeStyle;rounded=1;sketch=0;hachureGap=4;jiggle=2;curveFitting=1;html=1;exitX=1;exitY=0.5;exitDx=0;exitDy=0;entryX=0;entryY=0.5;entryDx=0;entryDy=0;fontFamily=Architects Daughter;fontSource=https%3A%2F%2Ffonts.googleapis.com%2Fcss%3Ffamily%3DArchitects%2BDaughter;fontSize=16;startArrow=none;startFill=0;endArrow=none;endFill=0;" parent="1" source="197" target="278" edge="1">
                    <mxGeometry relative="1" as="geometry"/>
                </mxCell>
                <mxCell id="301" style="edgeStyle=orthogonalEdgeStyle;rounded=1;sketch=0;hachureGap=4;jiggle=2;curveFitting=1;html=1;exitX=1;exitY=0.5;exitDx=0;exitDy=0;entryX=0;entryY=0.5;entryDx=0;entryDy=0;fontFamily=Architects Daughter;fontSource=https%3A%2F%2Ffonts.googleapis.com%2Fcss%3Ffamily%3DArchitects%2BDaughter;fontSize=16;startArrow=none;startFill=0;endArrow=none;endFill=0;" parent="1" source="197" target="275" edge="1">
                    <mxGeometry relative="1" as="geometry"/>
                </mxCell>
                <mxCell id="197" value="" style="whiteSpace=wrap;html=1;shadow=0;glass=0;sketch=0;opacity=50;fillColor=#f5f5f5;strokeColor=#666666;fontColor=#333333;rounded=1;" parent="1" vertex="1">
                    <mxGeometry x="70" y="-376" width="200" height="162.5" as="geometry"/>
                </mxCell>
                <mxCell id="198" value="Local" style="rounded=1;whiteSpace=wrap;html=1;fillColor=#eeeeee;strokeColor=#36393d;" parent="1" vertex="1">
                    <mxGeometry x="95" y="-331" width="160" height="45" as="geometry"/>
                </mxCell>
                <mxCell id="199" value="Non-Local" style="rounded=1;whiteSpace=wrap;html=1;fillColor=#eeeeee;strokeColor=#36393d;" parent="1" vertex="1">
                    <mxGeometry x="95" y="-276" width="160" height="45" as="geometry"/>
                </mxCell>
                <mxCell id="200" value="&lt;h1 style=&quot;border-color: var(--border-color); color: rgb(0, 0, 0); font-family: Helvetica; font-style: normal; font-variant-ligatures: normal; font-variant-caps: normal; letter-spacing: normal; orphans: 2; text-align: center; text-indent: 0px; text-transform: none; widows: 2; word-spacing: 0px; -webkit-text-stroke-width: 0px; background-color: rgb(251, 251, 251); text-decoration-thickness: initial; text-decoration-style: initial; text-decoration-color: initial;&quot;&gt;&lt;b style=&quot;border-color: var(--border-color);&quot;&gt;&lt;font style=&quot;border-color: var(--border-color); font-size: 14px;&quot; color=&quot;#080808&quot;&gt;Governments&lt;/font&gt;&lt;/b&gt;&lt;/h1&gt;" style="text;whiteSpace=wrap;html=1;fontColor=#000000;rounded=1;" parent="1" vertex="1">
                    <mxGeometry x="130" y="-393.5" width="180" height="55" as="geometry"/>
                </mxCell>
                <mxCell id="222" value="&lt;h1&gt;Stakeholder View&lt;/h1&gt;" style="text;strokeColor=none;align=left;fillColor=none;html=1;verticalAlign=middle;whiteSpace=wrap;rounded=1;" parent="1" vertex="1">
                    <mxGeometry x="70" y="-1060" width="670" height="30" as="geometry"/>
                </mxCell>
                <mxCell id="226" value="TRIP Owner" style="rounded=1;whiteSpace=wrap;html=1;fillColor=#eeeeee;strokeColor=#36393d;" parent="1" vertex="1">
                    <mxGeometry x="801" y="-966" width="140" height="80" as="geometry"/>
                </mxCell>
                <mxCell id="303" style="edgeStyle=orthogonalEdgeStyle;rounded=1;sketch=0;hachureGap=4;jiggle=2;curveFitting=1;html=1;exitX=0;exitY=0.5;exitDx=0;exitDy=0;entryX=1;entryY=0.75;entryDx=0;entryDy=0;fontFamily=Architects Daughter;fontSource=https%3A%2F%2Ffonts.googleapis.com%2Fcss%3Ffamily%3DArchitects%2BDaughter;fontSize=16;startArrow=none;startFill=0;endArrow=none;endFill=0;fillColor=#6d8764;strokeColor=#3A5431;" parent="1" source="230" target="275" edge="1">
                    <mxGeometry relative="1" as="geometry">
                        <Array as="points">
                            <mxPoint x="831" y="-406"/>
                            <mxPoint x="831" y="-532"/>
                        </Array>
                    </mxGeometry>
                </mxCell>
                <mxCell id="304" style="edgeStyle=orthogonalEdgeStyle;rounded=1;sketch=0;hachureGap=4;jiggle=2;curveFitting=1;html=1;exitX=0;exitY=0.5;exitDx=0;exitDy=0;entryX=1;entryY=0.5;entryDx=0;entryDy=0;fontFamily=Architects Daughter;fontSource=https%3A%2F%2Ffonts.googleapis.com%2Fcss%3Ffamily%3DArchitects%2BDaughter;fontSize=16;startArrow=none;startFill=0;endArrow=none;endFill=0;strokeColor=#3A5431;fillColor=#6d8764;" parent="1" source="230" target="268" edge="1">
                    <mxGeometry relative="1" as="geometry">
                        <Array as="points">
                            <mxPoint x="831" y="-406"/>
                            <mxPoint x="831" y="-796"/>
                            <mxPoint x="701" y="-796"/>
                            <mxPoint x="701" y="-902"/>
                        </Array>
                    </mxGeometry>
                </mxCell>
                <mxCell id="230" value="Customer Service" style="rounded=1;whiteSpace=wrap;html=1;fillColor=#eeeeee;strokeColor=#36393d;" parent="1" vertex="1">
                    <mxGeometry x="831" y="-316" width="140" height="80" as="geometry"/>
                </mxCell>
                <mxCell id="305" style="edgeStyle=orthogonalEdgeStyle;rounded=1;sketch=0;hachureGap=4;jiggle=2;curveFitting=1;html=1;exitX=0;exitY=0.5;exitDx=0;exitDy=0;entryX=1;entryY=0.5;entryDx=0;entryDy=0;fontFamily=Architects Daughter;fontSource=https%3A%2F%2Ffonts.googleapis.com%2Fcss%3Ffamily%3DArchitects%2BDaughter;fontSize=16;startArrow=none;startFill=0;endArrow=none;endFill=0;" parent="1" source="231" target="268" edge="1">
                    <mxGeometry relative="1" as="geometry">
                        <Array as="points">
                            <mxPoint x="661" y="-746"/>
                            <mxPoint x="661" y="-902"/>
                        </Array>
                    </mxGeometry>
                </mxCell>
                <mxCell id="306" style="edgeStyle=orthogonalEdgeStyle;rounded=1;sketch=0;hachureGap=4;jiggle=2;curveFitting=1;html=1;exitX=0;exitY=0.5;exitDx=0;exitDy=0;entryX=1;entryY=0.5;entryDx=0;entryDy=0;fontFamily=Architects Daughter;fontSource=https%3A%2F%2Ffonts.googleapis.com%2Fcss%3Ffamily%3DArchitects%2BDaughter;fontSize=16;startArrow=none;startFill=0;endArrow=none;endFill=0;fillColor=#e3c800;strokeColor=#B09500;" parent="1" source="231" target="270" edge="1">
                    <mxGeometry relative="1" as="geometry">
                        <Array as="points">
                            <mxPoint x="661" y="-746"/>
                            <mxPoint x="661" y="-784"/>
                        </Array>
                    </mxGeometry>
                </mxCell>
                <mxCell id="307" style="edgeStyle=orthogonalEdgeStyle;rounded=1;sketch=0;hachureGap=4;jiggle=2;curveFitting=1;html=1;exitX=0;exitY=0.5;exitDx=0;exitDy=0;entryX=1;entryY=0.5;entryDx=0;entryDy=0;fontFamily=Architects Daughter;fontSource=https%3A%2F%2Ffonts.googleapis.com%2Fcss%3Ffamily%3DArchitects%2BDaughter;fontSize=16;startArrow=none;startFill=0;endArrow=none;endFill=0;fillColor=#e3c800;strokeColor=#B09500;" parent="1" source="231" target="269" edge="1">
                    <mxGeometry relative="1" as="geometry">
                        <Array as="points">
                            <mxPoint x="661" y="-746"/>
                            <mxPoint x="661" y="-843"/>
                        </Array>
                    </mxGeometry>
                </mxCell>
                <mxCell id="231" value="Financial Analysts" style="rounded=1;whiteSpace=wrap;html=1;fillColor=#eeeeee;strokeColor=#36393d;" parent="1" vertex="1">
                    <mxGeometry x="941" y="-786" width="140" height="80" as="geometry"/>
                </mxCell>
                <mxCell id="302" style="edgeStyle=orthogonalEdgeStyle;rounded=1;sketch=0;hachureGap=4;jiggle=2;curveFitting=1;html=1;exitX=1;exitY=0.5;exitDx=0;exitDy=0;entryX=0;entryY=0.5;entryDx=0;entryDy=0;fontFamily=Helvetica;fontSource=https%3A%2F%2Ffonts.googleapis.com%2Fcss%3Ffamily%3DArchitects%2BDaughter;fontSize=11;startArrow=none;startFill=0;endArrow=none;endFill=0;strokeColor=#A50040;fillColor=#d80073;" parent="1" source="234" target="269" edge="1">
                    <mxGeometry relative="1" as="geometry">
                        <Array as="points">
                            <mxPoint x="341" y="-646"/>
                            <mxPoint x="341" y="-843"/>
                        </Array>
                    </mxGeometry>
                </mxCell>
                <mxCell id="234" value="" style="whiteSpace=wrap;html=1;shadow=0;glass=0;sketch=0;opacity=50;fillColor=#f5f5f5;strokeColor=#666666;fontColor=#333333;rounded=1;" parent="1" vertex="1">
                    <mxGeometry x="70" y="-861.25" width="200" height="431.25" as="geometry"/>
                </mxCell>
                <mxCell id="235" value="Students" style="rounded=1;whiteSpace=wrap;html=1;fillColor=#eeeeee;strokeColor=#36393d;" parent="1" vertex="1">
                    <mxGeometry x="94" y="-810.25" width="160" height="45" as="geometry"/>
                </mxCell>
                <mxCell id="236" value="Tourists" style="rounded=1;whiteSpace=wrap;html=1;fillColor=#eeeeee;strokeColor=#36393d;" parent="1" vertex="1">
                    <mxGeometry x="94" y="-751" width="160" height="45" as="geometry"/>
                </mxCell>
                <mxCell id="237" value="&lt;h1 style=&quot;border-color: var(--border-color); color: rgb(0, 0, 0); font-family: Helvetica; font-style: normal; font-variant-ligatures: normal; font-variant-caps: normal; letter-spacing: normal; orphans: 2; text-align: center; text-indent: 0px; text-transform: none; widows: 2; word-spacing: 0px; -webkit-text-stroke-width: 0px; background-color: rgb(251, 251, 251); text-decoration-thickness: initial; text-decoration-style: initial; text-decoration-color: initial;&quot;&gt;&lt;b style=&quot;border-color: var(--border-color);&quot;&gt;&lt;font style=&quot;border-color: var(--border-color); font-size: 14px;&quot; color=&quot;#080808&quot;&gt;Passengers&lt;/font&gt;&lt;/b&gt;&lt;/h1&gt;" style="text;whiteSpace=wrap;html=1;fontColor=#000000;rounded=1;" parent="1" vertex="1">
                    <mxGeometry x="131" y="-880" width="180" height="55" as="geometry"/>
                </mxCell>
                <mxCell id="294" style="edgeStyle=orthogonalEdgeStyle;rounded=1;hachureGap=4;html=1;exitX=0;exitY=0.5;exitDx=0;exitDy=0;entryX=1;entryY=0.5;entryDx=0;entryDy=0;fontFamily=Helvetica;fontSource=https%3A%2F%2Ffonts.googleapis.com%2Fcss%3Ffamily%3DArchitects%2BDaughter;fontSize=11;startArrow=none;startFill=0;endArrow=none;endFill=0;strokeColor=#C73500;fillColor=#fa6800;" parent="1" source="238" target="268" edge="1">
                    <mxGeometry relative="1" as="geometry">
                        <Array as="points">
                            <mxPoint x="861" y="-550"/>
                            <mxPoint x="861" y="-826"/>
                            <mxPoint x="771" y="-826"/>
                            <mxPoint x="771" y="-902"/>
                        </Array>
                    </mxGeometry>
                </mxCell>
                <mxCell id="296" style="edgeStyle=orthogonalEdgeStyle;rounded=1;sketch=0;hachureGap=4;jiggle=2;curveFitting=1;html=1;exitX=0;exitY=0.5;exitDx=0;exitDy=0;entryX=1;entryY=0.5;entryDx=0;entryDy=0;fontFamily=Helvetica;fontSource=https%3A%2F%2Ffonts.googleapis.com%2Fcss%3Ffamily%3DArchitects%2BDaughter;fontSize=11;startArrow=none;startFill=0;endArrow=none;endFill=0;strokeColor=#C73500;fillColor=#fa6800;" parent="1" source="238" target="277" edge="1">
                    <mxGeometry relative="1" as="geometry"/>
                </mxCell>
                <mxCell id="297" style="edgeStyle=orthogonalEdgeStyle;rounded=1;sketch=0;hachureGap=4;jiggle=2;curveFitting=1;html=1;exitX=0;exitY=0.5;exitDx=0;exitDy=0;entryX=1;entryY=0.5;entryDx=0;entryDy=0;fontFamily=Helvetica;fontSource=https%3A%2F%2Ffonts.googleapis.com%2Fcss%3Ffamily%3DArchitects%2BDaughter;fontSize=11;startArrow=none;startFill=0;endArrow=none;endFill=0;strokeColor=#C73500;fillColor=#fa6800;" parent="1" source="238" target="271" edge="1">
                    <mxGeometry relative="1" as="geometry">
                        <Array as="points">
                            <mxPoint x="861" y="-550"/>
                            <mxPoint x="861" y="-706"/>
                            <mxPoint x="625" y="-706"/>
                        </Array>
                    </mxGeometry>
                </mxCell>
                <mxCell id="238" value="" style="whiteSpace=wrap;html=1;shadow=0;glass=0;sketch=0;opacity=50;fillColor=#f5f5f5;strokeColor=#666666;fontColor=#333333;rounded=1;" parent="1" vertex="1">
                    <mxGeometry x="951" y="-631.5" width="200" height="162.5" as="geometry"/>
                </mxCell>
                <mxCell id="239" value="Train Tycoon" style="rounded=1;whiteSpace=wrap;html=1;fillColor=#eeeeee;strokeColor=#36393d;" parent="1" vertex="1">
                    <mxGeometry x="976" y="-586.5" width="160" height="45" as="geometry"/>
                </mxCell>
                <mxCell id="240" value="Bus Tycoon" style="rounded=1;whiteSpace=wrap;html=1;fillColor=#eeeeee;strokeColor=#36393d;" parent="1" vertex="1">
                    <mxGeometry x="976" y="-531.5" width="160" height="45" as="geometry"/>
                </mxCell>
                <mxCell id="241" value="&lt;h1 style=&quot;border-color: var(--border-color); color: rgb(0, 0, 0); font-family: Helvetica; font-style: normal; font-variant-ligatures: normal; font-variant-caps: normal; letter-spacing: normal; orphans: 2; text-align: center; text-indent: 0px; text-transform: none; widows: 2; word-spacing: 0px; -webkit-text-stroke-width: 0px; background-color: rgb(251, 251, 251); text-decoration-thickness: initial; text-decoration-style: initial; text-decoration-color: initial;&quot;&gt;&lt;b style=&quot;border-color: var(--border-color);&quot;&gt;&lt;font style=&quot;border-color: var(--border-color); font-size: 14px;&quot; color=&quot;#080808&quot;&gt;Tycoons&lt;/font&gt;&lt;/b&gt;&lt;/h1&gt;" style="text;whiteSpace=wrap;html=1;fontColor=#000000;rounded=1;" parent="1" vertex="1">
                    <mxGeometry x="1022" y="-646" width="180" height="55" as="geometry"/>
                </mxCell>
                <mxCell id="242" value="Elders" style="rounded=1;whiteSpace=wrap;html=1;fillColor=#eeeeee;strokeColor=#36393d;" parent="1" vertex="1">
                    <mxGeometry x="94" y="-692" width="160" height="45" as="geometry"/>
                </mxCell>
                <mxCell id="243" value="Workers" style="rounded=1;whiteSpace=wrap;html=1;fillColor=#eeeeee;strokeColor=#36393d;" parent="1" vertex="1">
                    <mxGeometry x="94" y="-632" width="160" height="45" as="geometry"/>
                </mxCell>
                <mxCell id="244" value="Family" style="rounded=1;whiteSpace=wrap;html=1;fillColor=#eeeeee;strokeColor=#36393d;" parent="1" vertex="1">
                    <mxGeometry x="94" y="-573" width="160" height="45" as="geometry"/>
                </mxCell>
                <mxCell id="245" value="Disabled" style="rounded=1;whiteSpace=wrap;html=1;fillColor=#eeeeee;strokeColor=#36393d;" parent="1" vertex="1">
                    <mxGeometry x="94" y="-514" width="160" height="45" as="geometry"/>
                </mxCell>
                <mxCell id="267" value="" style="whiteSpace=wrap;html=1;shadow=0;glass=0;sketch=0;opacity=50;fillColor=#f5f5f5;strokeColor=#666666;fontColor=#333333;rounded=1;" parent="1" vertex="1">
                    <mxGeometry x="441" y="-976" width="200" height="770" as="geometry"/>
                </mxCell>
                <mxCell id="268" value="Usability" style="rounded=1;whiteSpace=wrap;html=1;fillColor=#eeeeee;strokeColor=#36393d;" parent="1" vertex="1">
                    <mxGeometry x="465" y="-925" width="160" height="45" as="geometry"/>
                </mxCell>
                <mxCell id="269" value="Performance" style="rounded=1;whiteSpace=wrap;html=1;fillColor=#eeeeee;strokeColor=#36393d;" parent="1" vertex="1">
                    <mxGeometry x="465" y="-865.75" width="160" height="45" as="geometry"/>
                </mxCell>
                <mxCell id="270" value="Security" style="rounded=1;whiteSpace=wrap;html=1;fillColor=#eeeeee;strokeColor=#36393d;" parent="1" vertex="1">
                    <mxGeometry x="465" y="-806.75" width="160" height="45" as="geometry"/>
                </mxCell>
                <mxCell id="271" value="Modifiability" style="rounded=1;whiteSpace=wrap;html=1;fillColor=#eeeeee;strokeColor=#36393d;" parent="1" vertex="1">
                    <mxGeometry x="465" y="-746.75" width="160" height="45" as="geometry"/>
                </mxCell>
                <mxCell id="272" value="Deployability" style="rounded=1;whiteSpace=wrap;html=1;fillColor=#eeeeee;strokeColor=#36393d;" parent="1" vertex="1">
                    <mxGeometry x="465" y="-687.75" width="160" height="45" as="geometry"/>
                </mxCell>
                <mxCell id="273" value="Energy Efficency" style="rounded=1;whiteSpace=wrap;html=1;fillColor=#eeeeee;strokeColor=#36393d;" parent="1" vertex="1">
                    <mxGeometry x="465" y="-628.75" width="160" height="45" as="geometry"/>
                </mxCell>
                <mxCell id="274" value="&lt;h1 style=&quot;border-color: var(--border-color); color: rgb(0, 0, 0); font-family: Helvetica; font-style: normal; font-variant-ligatures: normal; font-variant-caps: normal; letter-spacing: normal; orphans: 2; text-align: center; text-indent: 0px; text-transform: none; widows: 2; word-spacing: 0px; -webkit-text-stroke-width: 0px; background-color: rgb(251, 251, 251); text-decoration-thickness: initial; text-decoration-style: initial; text-decoration-color: initial;&quot;&gt;&lt;b style=&quot;border-color: var(--border-color);&quot;&gt;&lt;font style=&quot;border-color: var(--border-color); font-size: 14px;&quot; color=&quot;#080808&quot;&gt;Quality Attributes&lt;/font&gt;&lt;/b&gt;&lt;/h1&gt;&lt;div&gt;&lt;b style=&quot;border-color: var(--border-color);&quot;&gt;&lt;font style=&quot;border-color: var(--border-color); font-size: 14px;&quot; color=&quot;#080808&quot;&gt;&lt;br&gt;&lt;/font&gt;&lt;/b&gt;&lt;/div&gt;" style="text;whiteSpace=wrap;html=1;fontColor=#000000;rounded=1;" parent="1" vertex="1">
                    <mxGeometry x="483" y="-990" width="180" height="55" as="geometry"/>
                </mxCell>
                <mxCell id="275" value="Availability" style="rounded=1;whiteSpace=wrap;html=1;fillColor=#eeeeee;strokeColor=#36393d;" parent="1" vertex="1">
                    <mxGeometry x="465" y="-566" width="160" height="45" as="geometry"/>
                </mxCell>
                <mxCell id="276" value="Safety" style="rounded=1;whiteSpace=wrap;html=1;fillColor=#eeeeee;strokeColor=#36393d;" parent="1" vertex="1">
                    <mxGeometry x="465" y="-506" width="160" height="45" as="geometry"/>
                </mxCell>
                <mxCell id="277" value="Integrability" style="rounded=1;whiteSpace=wrap;html=1;fillColor=#eeeeee;strokeColor=#36393d;" parent="1" vertex="1">
                    <mxGeometry x="465" y="-446" width="160" height="45" as="geometry"/>
                </mxCell>
                <mxCell id="278" value="Testability" style="rounded=1;whiteSpace=wrap;html=1;fillColor=#eeeeee;strokeColor=#36393d;" parent="1" vertex="1">
                    <mxGeometry x="465" y="-386" width="160" height="45" as="geometry"/>
                </mxCell>
                <mxCell id="279" value="Accesibility" style="rounded=1;whiteSpace=wrap;html=1;fillColor=#eeeeee;strokeColor=#36393d;" parent="1" vertex="1">
                    <mxGeometry x="465" y="-326" width="160" height="45" as="geometry"/>
                </mxCell>
                <mxCell id="282" value="" style="edgeStyle=orthogonalEdgeStyle;html=1;exitX=0;exitY=0.75;exitDx=0;exitDy=0;startArrow=none;startFill=0;endArrow=none;endFill=0;fillColor=#d80073;strokeColor=#A50040;" parent="1" source="268" edge="1">
                    <mxGeometry relative="1" as="geometry">
                        <mxPoint x="371" y="-934.9999999999999" as="sourcePoint"/>
                        <mxPoint x="271" y="-646" as="targetPoint"/>
                        <Array as="points">
                            <mxPoint x="341" y="-891"/>
                            <mxPoint x="341" y="-646"/>
                        </Array>
                    </mxGeometry>
                </mxCell>
                <mxCell id="283" value="" style="edgeStyle=orthogonalEdgeStyle;html=1;startArrow=none;startFill=0;endArrow=none;endFill=0;fillColor=#d80073;strokeColor=#A50040;entryX=1;entryY=0.5;entryDx=0;entryDy=0;" parent="1" target="234" edge="1">
                    <mxGeometry relative="1" as="geometry">
                        <mxPoint x="465" y="-296" as="sourcePoint"/>
                        <mxPoint x="271" y="-616" as="targetPoint"/>
                        <Array as="points">
                            <mxPoint x="465" y="-303"/>
                            <mxPoint x="341" y="-303"/>
                            <mxPoint x="341" y="-646"/>
                        </Array>
                    </mxGeometry>
                </mxCell>
                <mxCell id="285" value="" style="edgeStyle=orthogonalEdgeStyle;html=1;exitX=0;exitY=0.5;exitDx=0;exitDy=0;startArrow=none;startFill=0;endArrow=none;endFill=0;entryX=1;entryY=0.5;entryDx=0;entryDy=0;fillColor=#d80073;strokeColor=#A50040;" parent="1" source="270" target="234" edge="1">
                    <mxGeometry relative="1" as="geometry">
                        <mxPoint x="475" y="-839.57" as="sourcePoint"/>
                        <mxPoint x="371" y="-666" as="targetPoint"/>
                        <Array as="points">
                            <mxPoint x="341" y="-784"/>
                            <mxPoint x="341" y="-646"/>
                        </Array>
                    </mxGeometry>
                </mxCell>
                <mxCell id="286" value="" style="edgeStyle=orthogonalEdgeStyle;html=1;exitX=0;exitY=0.5;exitDx=0;exitDy=0;startArrow=none;startFill=0;endArrow=none;endFill=0;fillColor=#d80073;strokeColor=#A50040;" parent="1" source="276" edge="1">
                    <mxGeometry relative="1" as="geometry">
                        <mxPoint x="465" y="-642.75" as="sourcePoint"/>
                        <mxPoint x="270" y="-646" as="targetPoint"/>
                        <Array as="points">
                            <mxPoint x="341" y="-483"/>
                            <mxPoint x="341" y="-646"/>
                            <mxPoint x="270" y="-646"/>
                        </Array>
                    </mxGeometry>
                </mxCell>
                <mxCell id="288" value="" style="edgeStyle=orthogonalEdgeStyle;html=1;startArrow=none;startFill=0;endArrow=none;endFill=0;fillColor=#d80073;strokeColor=#A50040;exitX=0;exitY=0.5;exitDx=0;exitDy=0;entryX=1;entryY=0.5;entryDx=0;entryDy=0;" parent="1" source="275" target="234" edge="1">
                    <mxGeometry relative="1" as="geometry">
                        <mxPoint x="405" y="-409" as="sourcePoint"/>
                        <mxPoint x="321" y="-716" as="targetPoint"/>
                        <Array as="points">
                            <mxPoint x="341" y="-543"/>
                            <mxPoint x="341" y="-646"/>
                        </Array>
                    </mxGeometry>
                </mxCell>
                <mxCell id="289" value="" style="edgeStyle=orthogonalEdgeStyle;html=1;exitX=0;exitY=0.5;exitDx=0;exitDy=0;startArrow=none;startFill=0;endArrow=none;endFill=0;entryX=1;entryY=0.5;entryDx=0;entryDy=0;fillColor=#008a00;strokeColor=#005700;" parent="1" source="226" target="290" edge="1">
                    <mxGeometry relative="1" as="geometry">
                        <mxPoint x="836" y="-844.6800000000001" as="sourcePoint"/>
                        <mxPoint x="641" y="-706.0550000000001" as="targetPoint"/>
                        <Array as="points">
                            <mxPoint x="761" y="-926"/>
                            <mxPoint x="761" y="-243"/>
                        </Array>
                    </mxGeometry>
                </mxCell>
                <mxCell id="290" value="Maintainability" style="rounded=1;whiteSpace=wrap;html=1;fillColor=#eeeeee;strokeColor=#36393d;" parent="1" vertex="1">
                    <mxGeometry x="465" y="-266" width="160" height="45" as="geometry"/>
                </mxCell>
                <mxCell id="291" value="" style="edgeStyle=orthogonalEdgeStyle;html=1;exitX=0;exitY=0.5;exitDx=0;exitDy=0;startArrow=none;startFill=0;endArrow=none;endFill=0;entryX=1;entryY=0.5;entryDx=0;entryDy=0;fillColor=#008a00;strokeColor=#005700;" parent="1" source="226" target="273" edge="1">
                    <mxGeometry relative="1" as="geometry">
                        <mxPoint x="811" y="-916" as="sourcePoint"/>
                        <mxPoint x="635" y="-233.5" as="targetPoint"/>
                        <Array as="points">
                            <mxPoint x="761" y="-926"/>
                            <mxPoint x="761" y="-606"/>
                        </Array>
                    </mxGeometry>
                </mxCell>
                <mxCell id="292" value="" style="edgeStyle=orthogonalEdgeStyle;html=1;exitX=0;exitY=0.5;exitDx=0;exitDy=0;startArrow=none;startFill=0;endArrow=none;endFill=0;entryX=1;entryY=0.5;entryDx=0;entryDy=0;fillColor=#008a00;strokeColor=#005700;" parent="1" source="226" target="272" edge="1">
                    <mxGeometry relative="1" as="geometry">
                        <mxPoint x="911" y="-856" as="sourcePoint"/>
                        <mxPoint x="735" y="-173.5" as="targetPoint"/>
                        <Array as="points">
                            <mxPoint x="761" y="-926"/>
                            <mxPoint x="761" y="-665"/>
                        </Array>
                    </mxGeometry>
                </mxCell>
                <mxCell id="293" value="" style="edgeStyle=orthogonalEdgeStyle;html=1;exitX=0;exitY=0.5;exitDx=0;exitDy=0;startArrow=none;startFill=0;endArrow=none;endFill=0;entryX=1;entryY=0.5;entryDx=0;entryDy=0;fillColor=#008a00;strokeColor=#005700;hachureGap=4;fontSource=https%3A%2F%2Ffonts.googleapis.com%2Fcss%3Ffamily%3DArchitects%2BDaughter;" parent="1" source="226" target="271" edge="1">
                    <mxGeometry relative="1" as="geometry">
                        <mxPoint x="867" y="-891.79" as="sourcePoint"/>
                        <mxPoint x="691" y="-209.28999999999996" as="targetPoint"/>
                        <Array as="points">
                            <mxPoint x="761" y="-926"/>
                            <mxPoint x="761" y="-724"/>
                        </Array>
                    </mxGeometry>
                </mxCell>
            </root>
        </mxGraphModel>
    </diagram>
</mxfile>